<svg xmlns="http://www.w3.org/2000/svg" xmlns:xlink="http://www.w3.org/1999/xlink" viewBox="0 0 32.71 32.71"><defs><style>.cls-1{fill:url(#linear-gradient);}.cls-2{fill:url(#linear-gradient-2);}.cls-3{fill:url(#linear-gradient-3);}.cls-4{fill:url(#linear-gradient-4);}</style><linearGradient id="linear-gradient" x1="24.62" y1="19.92" x2="12.55" y2="5.53" gradientTransform="matrix(0.98, 0.03, -0.03, 0.91, 0.77, -0.77)" gradientUnits="userSpaceOnUse"><stop offset="0.49" stop-color="#ffa626"/><stop offset="0.68" stop-color="#f6871f"/><stop offset="0.97" stop-color="#e75014"/></linearGradient><linearGradient id="linear-gradient-2" x1="20.13" y1="24.04" x2="1.72" y2="15.45" gradientTransform="matrix(0.96, 0.05, -0.05, 0.95, 1.56, 0.1)" gradientUnits="userSpaceOnUse"><stop offset="0.42" stop-color="#ffa626"/><stop offset="0.63" stop-color="#f6871f"/><stop offset="0.96" stop-color="#e75014"/></linearGradient><linearGradient id="linear-gradient-3" x1="0.16" y1="29.09" x2="19.21" y2="29.09" gradientUnits="userSpaceOnUse"><stop offset="0.04" stop-color="#e87911"/><stop offset="0.1" stop-color="#eb7f14"/><stop offset="0.32" stop-color="#f6951e"/><stop offset="0.53" stop-color="#fda224"/><stop offset="0.73" stop-color="#ffa626"/></linearGradient><linearGradient id="linear-gradient-4" x1="29.08" y1="16.91" x2="29.08" gradientUnits="userSpaceOnUse"><stop offset="0.27" stop-color="#ffa626"/><stop offset="0.47" stop-color="#fda224"/><stop offset="0.68" stop-color="#f6951e"/><stop offset="0.9" stop-color="#eb7f14"/><stop offset="0.96" stop-color="#e87911"/></linearGradient></defs><g id="Layer_2" data-name="Layer 2"><g id="Layer_3_copy_5" data-name="Layer 3 copy 5"><path class="cls-1" d="M24.34,20a2.42,2.42,0,0,1-1.66-.82c-2.8-2.6-5.62-5.21-8.41-7.83C12.08,9.25,10,7.15,7.71,5.15c-1-.88-.65-1.66.51-1.95,2.13-.54,4.24-1.13,6.36-1.67,1-.25,1.15-.19,1.68.6,2.21,3.27,4.39,6.54,6.59,9.81,1.16,1.72,2.34,3.43,3.51,5.15.38.55.84,1.08.33,1.77A3.77,3.77,0,0,1,24.34,20Z"/><path class="cls-2" d="M0,17.38c.45-2,.86-4.06,1.35-6.07a1.2,1.2,0,0,1,1.95-.59c2.5,1.64,5,3.31,7.48,4.95,3.08,2,6.17,4,9.26,6.06.41.27.82.52,1.2.82a1.47,1.47,0,0,1,.31,2c-.79,1.39-.85,1.48-3.1.78L1.05,18.56C.5,18.35-.13,18.16,0,17.38Z"/><path class="cls-3" d="M9.55,32.7H2.26a9.36,9.36,0,0,1-1.18-.08,1,1,0,0,1-.92-1c0-1.49,0-3,0-4.47.08-1.3.62-1.74,2-1.59a29.11,29.11,0,0,1,3,.63c4.07.91,8.14,1.84,12.21,2.72,1.94.42,2,1.21,1.7,2.83a1.16,1.16,0,0,1-.71.84,5,5,0,0,1-1.55.16H9.55Z"/><path class="cls-4" d="M32.71,8.41c0,2.28,0,4.56,0,6.84,0,1.16-.24,1.48-1.12,1.6-1.26.18-1.76-.06-2.1-1.17-.67-2.22-1.29-4.45-1.93-6.68s-1.31-4.67-2-7C25.21.66,25.54.23,27,.18c1.19,0,2.39-.12,3.58-.17a7.2,7.2,0,0,1,1,0c.94.12,1.11.3,1.11,1.21,0,2.39,0,4.78,0,7.17Z"/></g></g></svg>