<svg xmlns="http://www.w3.org/2000/svg" xmlns:xlink="http://www.w3.org/1999/xlink" viewBox="0 0 37.66 37.16"><defs><style>.cls-1{fill:url(#linear-gradient);}.cls-2{fill:url(#linear-gradient-2);}.cls-3{fill:url(#linear-gradient-3);}.cls-4{fill:url(#linear-gradient-4);}</style><linearGradient id="linear-gradient" x1="28.69" y1="21.74" x2="15.04" y2="5.48" gradientTransform="translate(0.37 -1.35) rotate(2)" gradientUnits="userSpaceOnUse"><stop offset="0.27" stop-color="#ffa626"/><stop offset="0.51" stop-color="#f78720"/><stop offset="0.96" stop-color="#e74514"/></linearGradient><linearGradient id="linear-gradient-2" x1="23.28" y1="27.54" x2="2.67" y2="17.93" gradientTransform="translate(1.06 -1.55) rotate(3)" xlink:href="#linear-gradient"/><linearGradient id="linear-gradient-3" x1="0.76" y1="33.01" x2="22.64" y2="33.01" gradientUnits="userSpaceOnUse"><stop offset="0.04" stop-color="#e87911"/><stop offset="0.1" stop-color="#eb7f14"/><stop offset="0.32" stop-color="#f6951e"/><stop offset="0.53" stop-color="#fda224"/><stop offset="0.73" stop-color="#ffa626"/></linearGradient><linearGradient id="linear-gradient-4" x1="33.35" y1="20.68" x2="33.35" gradientUnits="userSpaceOnUse"><stop offset="0.27" stop-color="#ffa626"/><stop offset="0.47" stop-color="#fda224"/><stop offset="0.68" stop-color="#f6951e"/><stop offset="0.9" stop-color="#eb7f14"/><stop offset="0.96" stop-color="#e87911"/></linearGradient></defs><g id="Layer_2" data-name="Layer 2"><g id="Layer_3_copy_5" data-name="Layer 3 copy 5"><path class="cls-1" d="M28.12,23.84a2.63,2.63,0,0,1-1.88-1Q21.49,17.89,16.72,13c-2.48-2.58-4.88-5.23-7.42-7.75-1.11-1.1-.73-2.08.59-2.45C12.3,2.08,14.7,1.33,17.11.64,18.22.32,18.4.4,19,1.39c2.49,4.11,5,8.24,7.45,12.35,1.31,2.16,2.64,4.32,4,6.48.42.69.95,1.37.37,2.23A4.21,4.21,0,0,1,28.12,23.84Z"/><path class="cls-2" d="M0,19.66c.51-2.46,1-4.92,1.56-7.36a1.36,1.36,0,0,1,2.25-.72c2.88,2,5.74,4,8.61,6q5.34,3.69,10.68,7.34c.47.33.95.64,1.39,1a1.88,1.88,0,0,1,.36,2.41c-.92,1.68-1,1.79-3.59.94q-10-4.08-20.08-8.16C.58,20.83-.15,20.61,0,19.66Z"/><path class="cls-3" d="M11.54,37.15H3.18a8.93,8.93,0,0,1-1.37-.1,1.1,1.1,0,0,1-1-1.2c0-1.71,0-3.42,0-5.13.09-1.49.71-2,2.24-1.83a32.11,32.11,0,0,1,3.48.73c4.67,1,9.34,2.11,14,3.12,2.23.48,2.24,1.39,2,3.25a1.34,1.34,0,0,1-.81,1,5.54,5.54,0,0,1-1.79.17H11.54Z"/><path class="cls-4" d="M37.65,10.29c0,2.79,0,5.58,0,8.37,0,1.41-.28,1.81-1.32,2-1.5.21-2.09-.07-2.49-1.44-.8-2.71-1.53-5.44-2.28-8.17S30,5.29,29.22,2.44C28.77.81,29.16.28,30.86.22c1.41,0,2.82-.14,4.24-.2a6.32,6.32,0,0,1,1.23,0c1.11.14,1.31.36,1.31,1.48,0,2.92,0,5.85,0,8.77Z"/></g></g></svg>